<svg xmlns="http://www.w3.org/2000/svg" viewBox="0 0 385.2 382.5"><defs><style>.cls-1{fill:#d9d9d9;}.cls-2{fill:#bfbfbf;}.cls-3{fill:#afabab;}.cls-4{fill:#767171;}.cls-5{fill:#3b3838;}</style></defs><g id="Layer_2" data-name="Layer 2"><g id="Layers"><rect id="TMA_5" data-name="TMA 5" class="cls-1" width="385.2" height="382.5"/><polygon id="TMA_4" data-name="TMA 4" class="cls-2" points="92.5 204.66 32.73 204.66 32.73 24.64 173.38 24.64 240.81 24.64 342.57 24.64 342.57 363.06 91.3 363.06 92.5 204.66"/><polygon id="TMA_3" data-name="TMA 3" class="cls-3" points="129.46 293.81 101.38 293.81 101.38 173.46 77.14 173.46 77.14 55.84 158.01 55.84 255.94 55.84 255.94 126.89 321.71 126.89 321.71 175.15 342.57 175.15 342.57 207.34 321.71 207.34 321.71 270.12 238.9 270.12 238.9 336.9 199.43 336.9 199.43 336.9 128.97 336.9 129.46 293.81"/><polygon id="TMA_2" data-name="TMA 2" class="cls-4" points="151.78 198.78 135.44 198.78 135.44 149.56 290.98 149.56 290.98 230.81 219.22 230.81 219.22 281.45 150.57 281.45 151.78 198.78"/><polygon id="TMA_1" data-name="TMA 1" class="cls-5" points="168.22 233.69 168.22 187.25 221.5 187.25 283.3 187.25 283.3 219.53 235.29 219.53 235.29 206.34 210.94 206.34 210.94 233.69 169.38 233.69 168.22 233.69"/></g></g></svg>